<svg xmlns="http://www.w3.org/2000/svg" width="531.676" height="347.505" viewBox="0 0 531.676 347.505">
  <g id="Group_388" data-name="Group 388" transform="translate(-108.823 -67.911)">
    <g id="Group_385" data-name="Group 385" transform="translate(-5 21)">
      <g id="Background_Complete" data-name="Background Complete">
        <g id="Group_8" data-name="Group 8">
          <g id="Group_1" data-name="Group 1">
            <rect id="Rectangle_1" data-name="Rectangle 1" width="109.861" height="162.99" transform="translate(137.697 340.952) rotate(-70.852)" fill="#ebebeb"/>
          </g>
          <g id="Group_3" data-name="Group 3">
            <g id="Group_2" data-name="Group 2">
              <path id="Path_1" data-name="Path 1" d="M327.7,290.632a11.356,11.356,0,0,1-1.913.883l-5.592,2.268-20.679,8.092-68.585,26.243-.565.216-.324-.514-.782-1.24c-15.4-24.57-29.338-46.8-39.529-63.062l-11.834-19.2-3.155-5.26a11.463,11.463,0,0,1-1.014-1.888A11.655,11.655,0,0,1,175,238.9l3.389,5.112c2.977,4.61,7.134,11.05,12.234,18.95,10.284,16.2,24.35,38.351,39.9,62.831.267.425.535.849.782,1.24l-.888-.3L299.153,300.9,320,293.249l5.689-2.01A11.277,11.277,0,0,1,327.7,290.632Z" fill="#e0e0e0"/>
            </g>
          </g>
          <g id="Group_5" data-name="Group 5">
            <g id="Group_4" data-name="Group 4">
              <path id="Path_2" data-name="Path 2" d="M137.7,340.952c-.209-.351,16.31-10.557,36.89-22.793s37.441-21.874,37.649-21.522-16.306,10.555-36.893,22.794S137.906,341.3,137.7,340.952Z" fill="#e0e0e0"/>
            </g>
          </g>
          <g id="Group_7" data-name="Group 7">
            <g id="Group_6" data-name="Group 6">
              <path id="Path_3" data-name="Path 3" d="M263.868,313.11c.387-.132,6.924,17.963,14.6,40.411s13.588,40.761,13.2,40.894-6.922-17.959-14.6-40.415S263.481,313.242,263.868,313.11Z" fill="#e0e0e0"/>
            </g>
          </g>
        </g>
        <g id="Group_17" data-name="Group 17">
          <g id="Group_12" data-name="Group 12">
            <g id="Group_9" data-name="Group 9">
              <rect id="Rectangle_2" data-name="Rectangle 2" width="154.526" height="104.156" transform="translate(475.74 236.034) rotate(-9.617)" fill="#e0e0e0"/>
            </g>
            <g id="Group_11" data-name="Group 11">
              <g id="Group_10" data-name="Group 10">
                <path id="Path_4" data-name="Path 4" d="M628.095,210.219a10.789,10.789,0,0,1-1.187,1.608l-3.613,4.435L609.8,232.421l-45.027,53.1-.371.437-.5-.279-1.216-.674-61.622-34.375-18.6-10.558-5.021-2.933a10.976,10.976,0,0,1-1.705-1.106,11.127,11.127,0,0,1,1.842.859l5.148,2.7,18.812,10.168,61.822,34.016,1.215.674-.873.158,45.345-52.829,13.832-15.872,3.811-4.265A10.755,10.755,0,0,1,628.095,210.219Z" fill="#ebebeb"/>
              </g>
            </g>
          </g>
          <g id="Group_14" data-name="Group 14">
            <g id="Group_13" data-name="Group 13">
              <path id="Path_5" data-name="Path 5" d="M493.14,338.727c-.334-.2,8.738-16.215,20.26-35.773s21.137-35.261,21.471-35.064-8.737,16.211-20.262,35.776S493.474,338.923,493.14,338.727Z" fill="#ebebeb"/>
            </g>
          </g>
          <g id="Group_16" data-name="Group 16">
            <g id="Group_15" data-name="Group 15">
              <path id="Path_6" data-name="Path 6" d="M585.3,258.025c.261-.287,13.95,11.769,30.571,26.924s29.889,27.676,29.628,27.963-13.947-11.767-30.573-26.927S585.035,258.311,585.3,258.025Z" fill="#ebebeb"/>
            </g>
          </g>
        </g>
        <g id="Group_26" data-name="Group 26">
          <g id="Group_18" data-name="Group 18">
            <rect id="Rectangle_3" data-name="Rectangle 3" width="74.993" height="111.261" transform="matrix(0.366, -0.931, 0.931, 0.366, 448.335, 116.702)" fill="#ebebeb"/>
          </g>
          <g id="Group_21" data-name="Group 21">
            <g id="Group_20" data-name="Group 20">
              <g id="Group_19" data-name="Group 19">
                <path id="Path_7" data-name="Path 7" d="M579.322,88.594a7.637,7.637,0,0,1-1.329.55l-3.876,1.393-14.328,4.948-47.5,16.006-.391.132-.207-.359-.5-.867-25.221-44.1L478.425,52.87,476.419,49.2a7.874,7.874,0,0,1-.64-1.316,8,8,0,0,1,.816,1.214l2.171,3.58c1.9,3.227,4.56,7.734,7.82,13.263l25.477,43.956c.171.3.342.593.5.867l-.6-.227,47.6-15.721,14.429-4.645,3.936-1.214A7.856,7.856,0,0,1,579.322,88.594Z" fill="#e0e0e0"/>
              </g>
            </g>
          </g>
          <g id="Group_23" data-name="Group 23">
            <g id="Group_22" data-name="Group 22">
              <path id="Path_8" data-name="Path 8" d="M448.336,117.672c-.133-.246,11.415-6.751,25.79-14.528S500.267,89.258,500.4,89.5s-11.413,6.749-25.793,14.529S448.468,117.917,448.336,117.672Z" fill="#e0e0e0"/>
            </g>
          </g>
          <g id="Group_25" data-name="Group 25">
            <g id="Group_24" data-name="Group 24">
              <path id="Path_9" data-name="Path 9" d="M535.161,102.164c.267-.079,4.227,12.443,8.843,27.966s8.143,28.177,7.875,28.256-4.226-12.44-8.843-27.968S534.894,102.244,535.161,102.164Z" fill="#e0e0e0"/>
            </g>
          </g>
        </g>
      </g>
      <g id="Message">
        <g id="Group_346" data-name="Group 346">
          <g id="Group_330" data-name="Group 330">
            <g id="Group_329" data-name="Group 329">
              <g id="Group_328" data-name="Group 328">
                <g id="Group_321" data-name="Group 321">
                  <g id="Group_303" data-name="Group 303">
                    <g id="Group_302" data-name="Group 302">
                      <g id="Group_301" data-name="Group 301">
                        <path id="Path_83" data-name="Path 83" d="M274.235,214.9l235.87-1.713,6.574,160.363-244.235-2.264Z" fill="#e8505b"/>
                      </g>
                    </g>
                  </g>
                  <g id="Group_306" data-name="Group 306">
                    <g id="Group_305" data-name="Group 305">
                      <g id="Group_304" data-name="Group 304">
                        <path id="Path_84" data-name="Path 84" d="M274.235,214.9l111.631-90.327a12.819,12.819,0,0,1,16.192.051l108.047,88.563" fill="#e8505b"/>
                      </g>
                    </g>
                  </g>
                  <g id="Group_309" data-name="Group 309" opacity="0.3">
                    <g id="Group_308" data-name="Group 308">
                      <g id="Group_307" data-name="Group 307">
                        <path id="Path_85" data-name="Path 85" d="M274.235,214.9l111.631-90.327a12.819,12.819,0,0,1,16.192.051l108.047,88.563"/>
                      </g>
                    </g>
                  </g>
                  <g id="Group_313" data-name="Group 313">
                    <g id="Group_312" data-name="Group 312">
                      <g id="Group_311" data-name="Group 311">
                        <g id="Group_310" data-name="Group 310">
                          <path id="Path_86" data-name="Path 86" d="M272.445,371.287c-.294-.276,18.589-20.893,42.171-46.044s42.946-45.325,43.241-45.049-18.585,20.888-42.176,46.048S272.739,371.563,272.445,371.287Z" fill="#263238"/>
                        </g>
                      </g>
                    </g>
                  </g>
                  <g id="Group_317" data-name="Group 317">
                    <g id="Group_316" data-name="Group 316">
                      <g id="Group_315" data-name="Group 315">
                        <g id="Group_314" data-name="Group 314">
                          <path id="Path_87" data-name="Path 87" d="M516.68,373.551c-.3.268-18.691-19.932-41.069-45.113s-40.282-45.821-39.981-46.089,18.687,19.929,41.073,45.118S516.981,373.283,516.68,373.551Z" fill="#263238"/>
                        </g>
                      </g>
                    </g>
                  </g>
                  <g id="Group_320" data-name="Group 320" opacity="0.5">
                    <g id="Group_319" data-name="Group 319">
                      <g id="Group_318" data-name="Group 318">
                        <path id="Path_88" data-name="Path 88" d="M510.105,213.189,391.664,307.807,274.235,214.9"/>
                      </g>
                    </g>
                  </g>
                </g>
                <g id="Group_327" data-name="Group 327">
                  <g id="Group_326" data-name="Group 326">
                    <g id="Group_325" data-name="Group 325">
                      <g id="Group_322" data-name="Group 322">
                        <path id="Path_89" data-name="Path 89" d="M286.113,223.664,285.745,150l206.535-2.442,2.328,77.511-102.956,81.5Z" fill="#fafafa"/>
                      </g>
                      <g id="Group_324" data-name="Group 324">
                        <g id="Group_323" data-name="Group 323">
                          <path id="Path_90" data-name="Path 90" d="M286.113,223.664s.668.5,1.937,1.484l5.6,4.365,21.313,16.669L391.784,306.4h-.265l102.929-81.538-.1.21c-.445-14.788-.912-30.3-1.387-46.087-.319-10.626-.634-21.128-.942-31.424l.262.252-206.537,2.349.165-.168c.081,23.179.145,41.583.189,54.2.013,6.309.023,11.169.03,14.461,0,1.64,0,2.887,0,3.733s-.015,1.273-.015,1.273-.016-.419-.027-1.252-.023-2.084-.04-3.715c-.026-3.288-.065-8.141-.115-14.44-.082-12.632-.2-31.056-.353-54.26v-.166l.167,0,206.533-2.534.255,0,.008.255c.309,10.295.625,20.8.945,31.424.473,15.786.938,31.3,1.381,46.086l0,.13-.1.08L391.785,306.736l-.133.105-.132-.1-76.759-60.422L293.54,229.573l-5.548-4.4C286.742,224.183,286.113,223.664,286.113,223.664Z" fill="#263238"/>
                        </g>
                      </g>
                    </g>
                  </g>
                </g>
              </g>
            </g>
          </g>
          <g id="Group_332" data-name="Group 332">
            <g id="Group_331" data-name="Group 331">
              <path id="Path_91" data-name="Path 91" d="M459.64,184.645c0,.144-31.585.452-70.54.689s-70.549.312-70.55.168,31.578-.452,70.547-.689S459.639,184.5,459.64,184.645Z" fill="#263238"/>
            </g>
          </g>
          <g id="Group_334" data-name="Group 334">
            <g id="Group_333" data-name="Group 333">
              <path id="Path_92" data-name="Path 92" d="M459.64,205.454c0,.144-31.585.452-70.54.689s-70.549.311-70.55.168,31.578-.452,70.547-.689S459.639,205.31,459.64,205.454Z" fill="#263238"/>
            </g>
          </g>
          <g id="Group_336" data-name="Group 336">
            <g id="Group_335" data-name="Group 335">
              <path id="Path_93" data-name="Path 93" d="M459.64,229.438c0,.144-31.585.452-70.54.688s-70.549.312-70.55.168,31.578-.452,70.547-.688S459.639,229.294,459.64,229.438Z" fill="#263238"/>
            </g>
          </g>
          <g id="Group_338" data-name="Group 338">
            <g id="Group_337" data-name="Group 337">
              <path id="Path_94" data-name="Path 94" d="M459.64,253.421c0,.144-30.133.444-67.3.669s-67.306.292-67.307.148,30.127-.443,67.3-.669S459.639,253.278,459.64,253.421Z" fill="#263238"/>
            </g>
          </g>
          <g id="Group_340" data-name="Group 340">
            <g id="Group_339" data-name="Group 339">
              <path id="Path_95" data-name="Path 95" d="M433.223,274.473a4.862,4.862,0,0,1-.827.058l-2.372.064-8.726.145-28.787.412c-11.246.188-21.428.252-28.8.26l-8.727-.021-2.373-.033a5.015,5.015,0,0,1-.827-.047,4.848,4.848,0,0,1,.827-.058l2.372-.065,8.725-.144,28.792-.413c11.242-.187,21.423-.251,28.792-.26l8.727.022,2.373.033A4.882,4.882,0,0,1,433.223,274.473Z" fill="#263238"/>
            </g>
          </g>
          <g id="Group_342" data-name="Group 342">
            <g id="Group_341" data-name="Group 341">
              <path id="Path_96" data-name="Path 96" d="M406.635,294.708c0,.144-6.735.26-15.04.26s-15.042-.116-15.042-.26,6.733-.261,15.042-.261S406.635,294.564,406.635,294.708Z" fill="#263238"/>
            </g>
          </g>
          <g id="Group_343" data-name="Group 343">
            <circle id="Ellipse_1" data-name="Ellipse 1" cx="24.948" cy="24.948" r="24.948" transform="translate(451.207 228.473)" fill="#263238"/>
          </g>
          <g id="Group_344" data-name="Group 344">
            <circle id="Ellipse_2" data-name="Ellipse 2" cx="24.948" cy="24.948" r="24.948" transform="translate(444.712 228.473)" fill="#455a64"/>
          </g>
          <g id="Group_345" data-name="Group 345">
            <path id="Path_97" data-name="Path 97" d="M472.832,241.806v20.742H468.98V245.035h-4.386v-3.229Z" fill="#ebebeb"/>
          </g>
        </g>
      </g>
      <g id="Speech_Bubble" data-name="Speech Bubble">
        <g id="Group_355" data-name="Group 355">
          <g id="Group_350" data-name="Group 350">
            <g id="Group_347" data-name="Group 347">
              <path id="Path_98" data-name="Path 98" d="M287.731,116.351l22.816-.007-3.084-3.545,0-8.489A8.314,8.314,0,0,0,299.143,96h0a8.314,8.314,0,0,0-8.311,8.316l0,8.079Z" fill="#e8505b"/>
            </g>
            <g id="Group_348" data-name="Group 348">
              <path id="Path_99" data-name="Path 99" d="M295.95,115.23a3.524,3.524,0,1,0,6.888-1.184" fill="#e8505b"/>
            </g>
            <g id="Group_349" data-name="Group 349">
              <rect id="Rectangle_4" data-name="Rectangle 4" width="2.238" height="4.757" transform="translate(298.17 92.544)" fill="#e8505b"/>
            </g>
          </g>
          <g id="Group_354" data-name="Group 354">
            <g id="Group_353" data-name="Group 353">
              <g id="Group_352" data-name="Group 352">
                <g id="Group_351" data-name="Group 351">
                  <path id="Path_100" data-name="Path 100" d="M332.408,100.736a4.107,4.107,0,0,1-.16-.6c-.1-.428-.229-1.012-.4-1.761a21.2,21.2,0,0,0-.811-2.813c-.2-.544-.334-1.157-.611-1.762s-.55-1.258-.849-1.944a34.541,34.541,0,0,0-6.048-8.938,33.671,33.671,0,0,0-32.416-9.487c-.757.161-1.487.451-2.241.673a15.687,15.687,0,0,0-2.232.816,31.939,31.939,0,0,0-8.461,5.064,33.6,33.6,0,0,0-11.295,18.069,32.784,32.784,0,0,0-.655,11.606,32.176,32.176,0,0,0,3.427,11.476l.58,1.088.076.144-.045.147c-1.843,6.05-3.651,11.983-5.4,17.733l-.474-.429,14.285-7.449.177-.092.161.124a33.619,33.619,0,0,0,15.041,6.533,33.4,33.4,0,0,0,26.46-7.26,34.418,34.418,0,0,0,7.518-8.8,33.311,33.311,0,0,0,4.634-16.028q.011-1.48.017-2.63-.1-1.124-.168-1.913c-.04-.492-.071-.88-.1-1.173a2.086,2.086,0,0,1-.013-.4,2.186,2.186,0,0,1,.069.393c.037.292.087.678.149,1.169q.093.792.223,1.917.015,1.155.035,2.647a36.573,36.573,0,0,1-.9,7.241,36.966,36.966,0,0,1-3.605,9,34.667,34.667,0,0,1-7.558,8.969,33.819,33.819,0,0,1-26.848,7.492,34.166,34.166,0,0,1-15.338-6.617l.338.032L264.7,140.453l-.72.377.246-.805c1.748-5.751,3.553-11.685,5.393-17.736l.032.291-.593-1.111a32.876,32.876,0,0,1-3.5-11.733,33.459,33.459,0,0,1,.68-11.861,34.194,34.194,0,0,1,11.551-18.41,32.44,32.44,0,0,1,8.629-5.13,16.017,16.017,0,0,1,2.273-.822c.767-.223,1.511-.516,2.281-.676a33.681,33.681,0,0,1,38.847,18.9l.828,1.973c.268.614.4,1.235.586,1.786a19.787,19.787,0,0,1,.751,2.846c.143.757.253,1.349.335,1.781A4.31,4.31,0,0,1,332.408,100.736Z" fill="#263238"/>
                </g>
              </g>
            </g>
          </g>
        </g>
      </g>
      <path id="Path_109" data-name="Path 109" d="M425.089,134.323l6.612-29.089a1.734,1.734,0,0,0-1.773-2.345l-46.942.511a4.5,4.5,0,0,0-3.965,3.134l-5.8,25.524-3.551,14.451c-.187.764.721.984,1.406.34L380.6,137.9l40.521-.441A4.5,4.5,0,0,0,425.089,134.323Z" transform="translate(-179 -13)" fill="#e8505b"/>
      <g id="Group_383" data-name="Group 383" transform="translate(-179 -13)">
        <g id="Group_54" data-name="Group 54">
          <g id="Group_44" data-name="Group 44">
            <path id="Path_70" data-name="Path 70" d="M379.982,244.45l-.155,5.781-3.47,134.244h-13.87L350.2,269.45a.048.048,0,0,0-.011.033l-15.618,38.781,10.658,76.209-5.126.044-8.478.078s-25.361-76.053-24.85-80.98,19.557-58.666,19.557-58.666Z" fill="#121824"/>
            <path id="Path_71" data-name="Path 71" d="M381.328,161.36l-26.056-3.582-.61-.089-12.461.055-.111.022-14.882,3.724v83.695h54.121Z" fill="#fff"/>
            <path id="Path_72" data-name="Path 72" d="M425.917,177.621s1.894-11.832,3.269-11.889,1.226,5.182,1.226,5.182,8.265-8.791,11.568-6.633-7.924,16.1-7.924,16.1Z" fill="#ffb19e"/>
            <path id="Path_73" data-name="Path 73" d="M342.222,157.811l1.411,92.42H324.146l-1.376-25.295-25.855-.42a3.962,3.962,0,0,1-3.935-5.055l12.88-44.784a15.22,15.22,0,0,1,10.952-10.585l25.277-6.325Z"/>
            <path id="Path_74" data-name="Path 74" d="M434.9,180.76l-25.068,51.5a4.276,4.276,0,0,1-7.4.144l-19.618-32.512-.977,50.343H361.019L355.193,157.8l.078-.022,26.476,3.64a15.346,15.346,0,0,1,11.506,8.477l13.393,27.619a1.05,1.05,0,0,0,1.742.21l17.036-20.351Z"/>
            <path id="Path_75" data-name="Path 75" d="M322.647,225.182h25.4l.245-13.008-25.4-.368Z"/>
            <path id="Path_76" data-name="Path 76" d="M348.21,221.589c7.165-.262,14.829-2.825,18.416-7.039a1.447,1.447,0,0,0-1.11-2.377H348.1Z" fill="#ffb19e"/>
            <path id="Path_77" data-name="Path 77" d="M338.3,225.714l.024-.417-15.542-.114,1.363,25.049,4.637-20.754Z" opacity="0.41"/>
            <path id="Path_78" data-name="Path 78" d="M379.827,250.231l-3.47,134.244h-.976l-9.313-134.244Z" fill="#0e367c" opacity="0.32" style="mix-blend-mode: multiply;isolation: isolate"/>
            <path id="Path_79" data-name="Path 79" d="M348.265,212.081s-34.461,2.5-34.239,1.841l5.982-20.614.088.311.588,14.38C320.762,209.952,346.468,211.571,348.265,212.081Z" opacity="0.41"/>
            <path id="Path_80" data-name="Path 80" d="M409.831,232.256l25.068-51.5-.116-.039c-2.66-.012-25.985,48.756-28.439,49.983-2.794,1.4-23.532-30.816-23.532-30.816L402.43,232.4A4.276,4.276,0,0,0,409.831,232.256Z" opacity="0.41"/>
            <g id="Group_42" data-name="Group 42">
              <path id="Path_81" data-name="Path 81" d="M333.2,384.45c-2.991,6.126-17.207,9.222-17.207,9.222a3.911,3.911,0,0,0,.6,4.094c1.624,2.287,16.583.886,18.458.47a6.523,6.523,0,0,0,3.166-1.938A10.455,10.455,0,0,0,340.176,398c.7.338,4.523-.427,4.523-.427.9-2.437,0-11.741-.256-13.225Z"/>
            </g>
            <g id="Group_43" data-name="Group 43">
              <path id="Path_82" data-name="Path 82" d="M375.057,384.45c2.991,6.126,17.207,9.222,17.207,9.222a3.91,3.91,0,0,1-.6,4.094c-1.623,2.287-16.582.886-18.457.47a6.523,6.523,0,0,1-3.166-1.938A10.455,10.455,0,0,1,368.081,398c-.7.338-4.523-.427-4.523-.427-.9-2.437,0-11.741.256-13.225Z"/>
            </g>
            <path id="Path_83-2" data-name="Path 83" d="M334.571,308.264l10.658,76.209-5.126.044c-3.163-16.411-14.221-71.281-13.81-74.721.477-4.106,23.2-39.148,23.9-40.313Z" fill="#0e367c" opacity="0.32" style="mix-blend-mode: multiply;isolation: isolate"/>
          </g>
          <g id="Group_53" data-name="Group 53">
            <g id="Group_46" data-name="Group 46">
              <path id="Path_84-2" data-name="Path 84" d="M355.216,157.859c-1.889,1.508-6.454,4.722-6.454,4.722s-4.645-3.182-6.565-4.71l-.015-11.03h13.034Z" fill="#ffb19e" fill-rule="evenodd"/>
              <path id="Path_85-2" data-name="Path 85" d="M355.221,146.841v4.614a10.276,10.276,0,0,1-13.034.053v-4.667Z" fill="#ffb19e" fill-rule="evenodd"/>
              <path id="Path_86-2" data-name="Path 86" d="M334.233,139.711h29.286l.452-8.153c6.474-2.739,1.618-18.177,1.618-18.177.374,3.735-9.711,3.859-13.695,3.237a10.836,10.836,0,0,0-6.723,1s-12.7-2.739-11.952,15.065A32.8,32.8,0,0,0,334.233,139.711Z" fill="#8e96a2" fill-rule="evenodd"/>
              <g id="Group_45" data-name="Group 45">
                <path id="Path_87-2" data-name="Path 87" d="M360.422,131.545v7.348a11.406,11.406,0,0,1-3.576,8.3c-.373.331-.747.69-1.134,1.049a10.271,10.271,0,0,1-14.074,0l-1.12-1.049a11.336,11.336,0,0,1-3.59-8.276v-5.608a44.2,44.2,0,0,0,8.061-7.838S350.151,130.425,360.422,131.545Z" fill="#ffb19e" fill-rule="evenodd"/>
                <path id="Path_88-2" data-name="Path 88" d="M355.221,148.669v2.786a10.276,10.276,0,0,1-13.034.053v-2.8A10.26,10.26,0,0,0,355.221,148.669Z" fill="#f48f7a" fill-rule="evenodd"/>
                <path id="Path_89-2" data-name="Path 89" d="M339.845,140.573a3.729,3.729,0,0,0-5.207-5.208,2.253,2.253,0,0,0-.709.709,3.729,3.729,0,0,0,5.208,5.208A2.25,2.25,0,0,0,339.845,140.573Z" fill="#ffb19e" fill-rule="evenodd"/>
                <path id="Path_90-2" data-name="Path 90" d="M363.24,140.574a3.718,3.718,0,0,0-4.948-5.359,2.829,2.829,0,0,0-1.12,1.121,3.718,3.718,0,0,0,5.359,4.947A2.233,2.233,0,0,0,363.24,140.574Z" fill="#ffb19e" fill-rule="evenodd"/>
              </g>
            </g>
          </g>
        </g>
        <g id="Group_55" data-name="Group 55">
          <path id="Path_98-2" data-name="Path 98" d="M369.284,173.984H323.8a4.424,4.424,0,0,0-4.307,4.74L320.681,208a4.482,4.482,0,0,0,4.417,4.271h42.884A4.482,4.482,0,0,0,372.4,208l1.193-29.279A4.423,4.423,0,0,0,369.284,173.984Z" fill="#64686e"/>
          <path id="Path_99-2" data-name="Path 99" d="M369.284,173.984H323.8a4.192,4.192,0,0,0-3.136,1.416,4.1,4.1,0,0,1,1.173-.188H367.32a4.422,4.422,0,0,1,4.307,4.739l-1.192,29.279a4.431,4.431,0,0,1-1.214,2.838A4.486,4.486,0,0,0,372.4,208l1.193-29.279A4.423,4.423,0,0,0,369.284,173.984Z" fill="#64686e"/>
        </g>
      </g>
      <g id="Group_74" data-name="Group 74" transform="translate(-699 103)">
        <g id="Group_56" data-name="Group 56" transform="translate(867.727 75.516)">
          <path id="Path_1-2" data-name="Path 1" d="M139.09,62.445l2.733-3.93,1.366,1.965-1.366,1.965Z" transform="translate(-139.09 -58.516)" fill="#ff1748"/>
          <path id="Path_3-2" data-name="Path 3" d="M146.319,75.828l.349-.5,1.366,1.965Z" transform="translate(-145.301 -73.362)" fill="#8b001d"/>
          <path id="Path_2-2" data-name="Path 2" d="M139.09,58.516l2.733,3.93,1.366-1.965-1.366-1.965Z" transform="translate(-139.09 -58.516)" fill="#ff1748"/>
        </g>
        <text id="SWOL" transform="translate(860 76.023)" font-size="2" font-family="HelveticaNeue-Bold, Helvetica Neue" font-weight="700"><tspan x="1.614" y="2">SWOL</tspan></text>
      </g>
      <g id="Group_384" data-name="Group 384" transform="translate(-477 87)">
        <g id="Group_56-2" data-name="Group 56" transform="translate(873.209 75.516)">
          <path id="Path_1-3" data-name="Path 1" d="M139.09,64.911l4.672-6.395,2.336,3.2-2.336,3.2Z" transform="translate(-139.09 -58.516)" fill="#ff1748"/>
          <path id="Path_3-3" data-name="Path 3" d="M146.319,76.143l.6-.816,2.336,3.2Z" transform="translate(-144.579 -72.129)" fill="#8b001d"/>
          <path id="Path_2-3" data-name="Path 2" d="M139.09,58.516l4.672,6.395,2.336-3.2-2.336-3.2Z" transform="translate(-139.09 -58.516)" fill="#ff1748"/>
        </g>
        <text id="SWOL-2" data-name="SWOL" transform="translate(860 76.341)" font-size="4" font-family="HelveticaNeue-Bold, Helvetica Neue" font-weight="700"><tspan x="1.897" y="4">SWOL</tspan></text>
      </g>
    </g>
  </g>
</svg>
