<svg xmlns="http://www.w3.org/2000/svg" width="268.278" height="198.105" viewBox="0 0 268.278 198.105">
  <g id="Group_11" data-name="Group 11" transform="translate(-188.861 -257.631)">
    <g id="OBJECTS">
      <g id="Group_2" data-name="Group 2">
        <path id="Path_11" data-name="Path 11" d="M453.625,368.132c-1.1.643-2.551,1.444-4.332,2.382-29.913,15.863-150.954,71.9-163.2,76.953-2.466,1.022-5.744,2.55-9.264,4.026-6.661,2.782-14.187,5.333-18.667,3.762-14.555-5.122-64.473-62.238-68.52-74.855-1.739-5.428,7.114-9.8,12.532-12.616.653-.337,1.265-.653,1.792-.949,16.042-8.885,143.734-58.781,154.622-61.311,3.878-.906,7.883-2.382,11.878-3.415,6.282-1.623,12.564-2.139,18.361,2.393,10.719,8.39,46.882,35.593,53.807,41.633C447.649,350.5,464.323,361.871,453.625,368.132Z" fill="#edd8d1"/>
        <path id="Path_12" data-name="Path 12" d="M189.472,338.971c-.542,4.591-1.848,23.618,2.517,28.873,2.479,2.984,42.407,46.3,48.869,51.711,3.959,3.313,8.984,7.71,14.35,8.33,17.325,2,182.988-82.346,187.68-84.407,3.417-1.5,1.108-14.268.425-20.084Z" fill="#564953"/>
        <path id="Path_13" data-name="Path 13" d="M436.539,340.478c-31.62,14.551-64.31,30.981-96.39,46.34-3.9,1.861-7.791,3.721-11.67,5.541-19.06,9-37.83,17.49-55.95,24.84-.231-2.3-.18-7.5-.61-9.51q27.7-12.811,55.629-25.621c36.28-16.66,72.4-33.859,108.431-50.519A61.107,61.107,0,0,1,436.539,340.478Z" fill="#bfafa7"/>
        <path id="Path_14" data-name="Path 14" d="M328.479,392.359c-19.06,9-37.83,17.49-55.95,24.84-.231-2.3-.18-7.5-.61-9.51q27.7-12.811,55.629-25.621Z" fill="#7a9c02"/>
        <path id="Path_15" data-name="Path 15" d="M440.089,329.289c-1.041.609-2.42,1.369-4.11,2.26-28.38,15.05-143.221,68.22-154.841,73.009-2.34.971-5.45,2.42-8.789,3.821-6.32,2.64-13.461,5.06-17.711,3.57-13.81-4.861-61.169-59.051-65.01-71.02-1.649-5.15,6.75-9.3,11.89-11.97.62-.32,1.2-.621,1.7-.9,15.219-8.429,136.37-55.769,146.7-58.169,3.68-.86,7.48-2.26,11.269-3.241,5.961-1.539,11.92-2.029,17.42,2.27,10.171,7.961,44.481,33.771,51.051,39.5C434.419,312.558,450.238,323.349,440.089,329.289Z" fill="#77758a"/>
        <path id="Path_16" data-name="Path 16" d="M435.979,331.549c-15.991,8.48-59.45,29.07-96.411,46.279-4.05,1.891-8.02,3.73-11.859,5.51-.071.031-.141.07-.211.1-23.269,10.789-42.019,19.34-46.36,21.119-2.34.971-5.45,2.42-8.789,3.821q-5.762-7.125-11.69-14.17-3.39-4.035-6.861-8.051c-16.87-19.629-34.54-38.709-52.28-57.2.62-.32,1.2-.621,1.7-.9,6.019-3.33,28.62-12.759,54.38-23.089,3.959-1.58,8-3.19,12.06-4.8,23.139-9.179,47.109-18.429,62.9-24.26,4.4-1.629,8.171-3,11.1-4.019,3.06-1.061,5.219-1.76,6.26-2,3.68-.86,7.48-2.26,11.269-3.241q5.64,4.951,11.33,9.91,4.635,4.035,9.3,8.081c11.961,10.38,24.031,20.759,36.01,31.13l11.131,9.66Q432.483,328.489,435.979,331.549Z" fill="#e2cec5"/>
        <path id="Path_17" data-name="Path 17" d="M354.229,305.728l-52.56,30-32.01-35.56c23.139-9.179,47.109-18.429,62.9-24.26Z" fill="#8cb302"/>
        <path id="Path_18" data-name="Path 18" d="M213.638,366.228c1.75,3.25,14.126,16.771,16,18.25,2.375,1.875,11.265-5.35,11.875-6.937.625-1.625-14.687-16.938-16.75-18.462C222.843,357.66,212.121,363.411,213.638,366.228Z" fill="#403a44"/>
        <path id="Path_19" data-name="Path 19" d="M216.031,367.1s13.232,14.375,14.482,15.125,7.75-4.125,8.375-5.125-13.375-14.875-14.25-15.5S214.858,365.734,216.031,367.1Z" fill="#5c606c"/>
        <path id="Path_20" data-name="Path 20" d="M408.616,299.759l-14.4-13.109c-1.425-1.3-3.553.819-2.121,2.122l14.4,13.108C407.92,303.177,410.048,301.062,408.616,299.759Z" fill="#bdcbd8"/>
        <path id="Path_21" data-name="Path 21" d="M428.959,325.429s-54.451,39.079-87.091,1.62l-31.13,18.75,28.83,32.029c-4.05,1.891-8.02,3.73-11.859,5.51l-12.24-13.68-54.81,24.551q-3.39-4.035-6.861-8.051l54.041-25.039-50.24-56.15c3.959-1.58,8-3.19,12.06-4.8l32.01,35.56c14.579-8.379,52.56-30,52.56-30l-21.671-29.82c4.4-1.629,8.171-3,11.1-4.019l9.13,12.73,19.729-8.061q4.635,4.035,9.3,8.081l-22.3,9.369,11.23,15.65-17.539,10.561c9.119,8.369,32.45,21.521,67.26-2.159Z" fill="#fffffd"/>
        <path id="Path_22" data-name="Path 22" d="M340.149,386.817q-5.853,2.8-11.667,5.544l-.83-9.2,11.9-5.432Z" fill="#d9d9d7"/>
        <path id="Path_23" data-name="Path 23" d="M327.649,383.168l-.151.271c-23.269,10.789-42.019,19.34-46.36,21.119-2.34.971-5.45,2.42-8.789,3.821q-5.762-7.125-11.69-14.17l54.81-24.551Z" fill="#8cb302"/>
        <path id="Path_24" data-name="Path 24" d="M235.315,320.509l19.9-9.28,23.56,27.744-19.285,8.756Z" fill="#b99d88"/>
        <path id="Path_25" data-name="Path 25" d="M266.076,358.858l9.615,12.965,19.423-10.275-9.32-10.319Z" fill="#b99d88"/>
        <path id="Path_26" data-name="Path 26" d="M245.755,369.659l14.9-8.111,8.291,13.091-14.635,7.43Z" fill="#b99d88"/>
        <path id="Path_27" data-name="Path 27" d="M318.749,347.728l9.73-5.5,5.422,9-8.789,5Z" fill="#b99d88"/>
        <path id="Path_28" data-name="Path 28" d="M327.649,358.858l16.99-9.629,16,15.25-20.49,9Z" fill="#b99d88"/>
        <path id="Path_29" data-name="Path 29" d="M368.138,296.728l12.5-6.033,5.5,9.033-13.5,6.09Z" fill="#b99d88"/>
        <path id="Path_30" data-name="Path 30" d="M203.006,368.377l-6.422-6.411a1.5,1.5,0,0,0-2.121,2.121q3.21,3.207,6.422,6.412A1.5,1.5,0,0,0,203.006,368.377Z" fill="#362f34"/>
        <path id="Path_31" data-name="Path 31" d="M205.3,371.228a1.5,1.5,0,0,0,0,3A1.5,1.5,0,0,0,205.3,371.228Z" fill="#362f34"/>
        <path id="Path_32" data-name="Path 32" d="M236.02,402.3c-.366,2.043-.911,5.109-1.455,8.326a145.476,145.476,0,0,0,18.557,14.345,33.809,33.809,0,0,0,1-8.975A150.88,150.88,0,0,1,236.02,402.3Z" fill="#61525e"/>
        <path id="Path_33" data-name="Path 33" d="M261.456,424.848c-.236-3.081-.588-6.3-.824-9.385a8.5,8.5,0,0,1-4,.391q.15,4.5.3,9C257.984,425.326,260.327,425.071,261.456,424.848Z" fill="#61525e"/>
        <path id="Path_34" data-name="Path 34" d="M434.766,319.688l-.247-.027a1.5,1.5,0,0,0-1.5,1.5,1.544,1.544,0,0,0,1.5,1.5l.247.027a1.5,1.5,0,0,0,1.5-1.5A1.544,1.544,0,0,0,434.766,319.688Z" fill="#bdcbd8"/>
      </g>
      <g id="Group_4" data-name="Group 4">
        <path id="Path_60" data-name="Path 60" d="M274.276,307.769c-3,5.85-8.93,17.17-16.81,16.27-4.16-.48-7.57-3.78-10.41-7.67-2.55-3.48-4.63-7.43-6.38-10.2-5.79-9.2-9.15-23.71-4.62-33.96a24.436,24.436,0,0,1,12.49-12.57,22.837,22.837,0,0,1,20.16.7,23.384,23.384,0,0,1,4.02,2.73C285.426,273.709,280.8,295.039,274.276,307.769Z" fill="#e2342b"/>
        <path id="Path_61" data-name="Path 61" d="M272.726,263.069a23.384,23.384,0,0,0-4.02-2.73,22.532,22.532,0,0,0-11.727-2.68,22.511,22.511,0,0,1,9.747,2.68,23.385,23.385,0,0,1,4.02,2.73c12.7,10.64,8.07,31.97,1.55,44.7-2.759,5.38-8,15.376-14.948,16.252.04.005.078.014.118.018,7.88.9,13.81-10.42,16.81-16.27C280.8,295.039,285.426,273.709,272.726,263.069Z" fill="#e27971"/>
        <path id="Path_62" data-name="Path 62" d="M271.176,293.359a16.956,16.956,0,0,1-6.97,5.21,17.943,17.943,0,0,1-3.51,1.05,17.134,17.134,0,0,1-9.46-.73,18.028,18.028,0,0,1-11.22-17.41c.67-11.58,11.81-17.74,21.49-15.54a17.363,17.363,0,0,1,3.45,1.18,15.72,15.72,0,0,1,3.11,1.9,17.062,17.062,0,0,1,3.55,3.68A17.756,17.756,0,0,1,271.176,293.359Z" fill="#fed772"/>
        <path id="Path_63" data-name="Path 63" d="M251.236,298.889a18.028,18.028,0,0,1-11.22-17.41c.67-11.58,11.81-17.74,21.49-15.54C264.006,275.689,256.886,289.859,251.236,298.889Z" fill="#f3c452"/>
        <path id="Path_64" data-name="Path 64" d="M264.206,298.569a17.943,17.943,0,0,1-3.51,1.05,82.942,82.942,0,0,0,4.26-32.5,15.72,15.72,0,0,1,3.11,1.9A85.084,85.084,0,0,1,264.206,298.569Z" fill="#f3c452"/>
      </g>
    </g>
  </g>
</svg>
